<?xml version="1.0" encoding="utf-8"?>
<!-- Generator: Adobe Illustrator 22.0.1, SVG Export Plug-In . SVG Version: 6.00 Build 0)  -->
<svg version="1.1" id="Capa_1" xmlns="http://www.w3.org/2000/svg" xmlns:xlink="http://www.w3.org/1999/xlink" x="0px" y="0px"
	 viewBox="0 0 841.9 595.3" enable-background="new 0 0 841.9 595.3" xml:space="preserve">
<rect fill="#D8E2DC" width="841.9" height="595.3"/>
<g>
	<path fill="#A4AEA9" d="M461,381.7c-0.8,1.2-2,1.9-3.2,2.6c-3.9,2.3-8.1,3.8-12.4,5.1c-9.4,2.8-19.1,4.7-28.8,6.3
		c-6.6,1.1-13.2,1.9-19.8,2.7c-5.4,0.6-10.9,1.2-16.3,1.7c-3.9,0.4-7.9,0.7-11.8,1c-4.3,0.3-8.5,0.6-12.8,0.8
		c-4.5,0.2-9,0.5-13.5,0.7c-4.9,0.2-9.8,0.3-14.7,0.5c-12.5,0.4-24.9,0.3-37.4,0.2c-4.7,0-9.3-0.2-14-0.3c-4-0.1-7.9-0.3-11.9-0.5
		c-4.7-0.2-9.4-0.5-14-0.8c-5.6-0.4-11.3-0.9-16.9-1.5c-11.5-1.2-23-2.8-34.3-5.7c-4.1-1.1-8.2-2.3-12-4.4c-1.3-0.7-2.5-1.5-3.6-2.6
		c-2.3-2.4-2.4-5-0.1-7.5c1.8-1.9,4.1-3.2,6.4-4.3c7.1-3.3,14.6-5.2,22.2-6.9c6.1-1.4,12.2-2.4,18.3-3.4c5-0.8,10-1.4,15-2
		c5.8-0.7,11.6-1.3,17.4-1.9c4.3-0.4,8.5-0.7,12.8-1c5.2-0.4,10.3-0.7,15.5-1c3.4-0.2,6.7-0.3,10.1-0.5c5.1-0.2,10.2-0.4,15.4-0.5
		c11.7-0.4,23.3-0.3,35-0.2c4.6,0,9.3,0.2,13.9,0.3c2.8,0.1,5.6,0.2,8.4,0.3c0,0,0.1,0,0.1,0c1.5,0.1,1.4,0.1,1.5,1.6
		c0.2,4,0.1,8.1,0.2,12.1c0.1,1.9,0.2,3.8,1.1,5.6c0.8,1.7,2.1,2.9,3.7,3.8c2.1,1.3,4.5,2,6.7,2.9c3.2,1.2,6.5,1.6,9.8,2.1
		c4.3,0.6,8.7,1,13.1,1.5c1.9,0.2,3.8,0.3,5.7,0.4c1.4,0.1,2.8,0.2,4.2,0.2c0.2,0,0.4,0,0.5,0c0.2,0,0.4,0,0.6,0
		c5.4-0.4,10.7-0.8,16.1-1.5c3.6-0.4,7.2-0.9,10.8-1.4c1.3-0.2,2.5-0.6,3.8-1c2.9-1,5.9-1.9,8.5-3.6
		C460.5,381.6,460.8,381.5,461,381.7z"/>
	<path fill="#D8E2DC" d="M444.3,225.2c0.2,1,0.3,2,0.3,3c0,2.6,0,5.1,0.4,7.6c0.5,2.9,1.8,5.3,3.5,7.7c1.7,2.3,3.7,4.3,5.8,6.2
		c1,0.9,2.2,1.5,3.2,2.4c3.7,3.2,6.4,6.9,7.2,11.9c0.4,2.8,0.9,5.7,1,8.6c0.2,5.3,0,10.7,0.1,16c0,0.2,0,0.3-0.1,0.5
		c-0.3,0.4-0.4,0.8-0.7,1.2c-0.2,0.2-0.4,0.5-0.8,0.3c-0.4-1.2-0.2-2.4-0.2-3.5c0-0.6,0.1-1.2,0.1-1.9c-0.1-2.9,0.3-5.8,0.2-8.7
		c0-0.3,0-0.7,0-1c-0.1-0.8-0.6-1.1-1.3-0.9c-1,0.2-2,0.5-3,1c-3.1,1.4-6.5,2.1-9.8,2.9c-7.4,1.7-14.8,3.1-22.3,4.4
		c-0.8,0.1-1.6,0.2-2.4,0.2c-2,0-4,0-6.1,0c-4,0-8-0.3-12-1.1c-2.3-0.4-4.7-0.8-7-1.3c-0.4-0.1-0.8-0.1-1.1-0.4
		c-0.3-0.3-0.3-0.8-0.2-1.2c0.6-4.7,1.4-9.3,3-13.7c1.5-4.1,3.4-8,5.6-11.7c2.3-4,4.5-8.1,5.9-12.5c1.1-3.4,1.7-7,2.2-10.6
		c0.2-1.2,0.5-2.4,0.5-3.7c0-0.3,0.1-0.5,0.4-0.6c0.4-0.2,0.9-0.1,1.3-0.1c2.9,0,5.8,0,8.7,0c1.6,0,3.2-0.1,4.8-0.4
		c1.1-0.2,2.2-0.2,3.3-0.2c2.9-0.2,5.9-0.3,8.8-0.5C443.7,225,444.1,225,444.3,225.2z"/>
	<path fill="#D8E2DC" d="M420.6,389.5c-0.2,0-0.3,0-0.5,0c-0.6-0.7-1.3-1.1-2.1-1.4c-0.5-0.2-0.9-0.6-1.4-1
		c-2.8-2.6-4.8-5.7-6.4-9.2c-1.7-3.6-2.8-7.4-4.1-11.2c-1.2-3.6-2.1-7.3-2.7-11c-0.3-2.1-0.6-4.1-0.8-6.2c0-0.4-0.1-0.8,0.5-0.9
		c0.9,0.1,1.6,0.6,2.3,1c2.6,1.3,5.4,2.1,8.2,2.6c1.4,0.2,2.7,0.1,4-0.2c1.1-0.1,2.2-0.2,3.3-0.3c2.8-0.2,5.5-0.8,8.1-1.6
		c1.8-0.6,3.8-0.8,5.5-1.8c1.7-0.9,3.3-1.8,5-2.7c0.9-0.4,1.6-1.1,2.3-1.7c0.3-0.3,0.7-0.6,1.1-0.6c3.4-0.6,6.9-1.3,10.2-2.2
		c2.8-0.8,5.4-2,7.8-3.6c0.5-0.3,1-0.7,1.6-0.9c0.6-0.2,0.8-0.6,0.9-1.2c0.1-0.6,0.1-1.1,0.1-1.7c0-6,0-12,0-18c0-0.4,0-0.9,0.1-1.3
		c0.4-0.8,1.2-1.1,2-1.4c0.2,1-0.1,1.9-0.1,2.8c0,7.9,0,15.8,0,23.7c0,3.6-0.2,7.1-0.3,10.7c-0.1,2.8-0.2,5.6-0.3,8.5
		c-0.2,3.9,0,7.8-0.2,11.8c-0.1,2.4,0.1,4.8-0.8,7.1c-0.6,1.6-1.6,3-2.8,4.2c-0.1-0.1-0.1-0.1-0.2,0c0,0,0,0,0,0
		c-0.8,0.4-1.5,0.9-2.3,1.3c-2,1.1-4.3,1.7-6.4,2.5c-3.1,1.2-6.4,1.4-9.6,1.9c-2.9,0.5-5.8,0.7-8.6,1c-1.9,0.2-3.8,0.5-5.7,0.6
		c-2.5,0.1-4.9,0.3-7.4,0.5C420.8,389.5,420.7,389.5,420.6,389.5z"/>
	<path fill="#EDEDED" d="M420.9,351.9c-1.1,0.3-2.3,0.3-3.5,0.3c-2.6,0-5.1-0.6-7.4-1.7c-2.2-1-4.2-2.3-6.2-3.7
		c-2.6-1.8-5.3-3.5-7.8-5.5c-1.1-0.9-2.3-1.8-3.4-2.6c-1.4-1-2.5-2.4-3.6-3.8c-1.9-2.4-3.9-4.7-5.7-7.2c-1.5-2-2.7-4.2-3.9-6.3
		c-0.5-0.9-0.7-1.8-0.7-2.8c-0.1-1.1-0.1-2.3-0.3-3.4c-0.1-0.5-0.3-0.9-0.7-1.2c-0.8-0.6-1.6-1.2-2.3-1.8c-0.3-0.3-0.8-0.5-0.9-1
		c0-0.7,0-1.4-0.1-2c0.3-0.3,0.6-0.1,0.9,0.1c0.4,0.2,0.8,0.6,1.2,0.8c0.4,0.1,0.8,0.7,1.2,0.5c0.3-0.2,0-0.8,0-1.2
		c0-3.1-0.5-6.2-0.3-9.3c0-0.3-0.1-0.6,0-0.9c0.3-1.3-0.2-2.3-0.9-3.3c-0.8-1.1-1.8-2.2-2.3-3.6c0-1.9,0-3.7,0-5.6
		c0.4-0.1,0.6,0.2,0.8,0.5c0.3,0.3,0.6,0.7,0.9,1c1.2,1.4,2.4,2.8,3.5,4.3c0.4,0.5,0.8,0.7,1.5,0.6c10.1-1.6,20.2-3.4,30.3-5.1
		c2.9-0.5,5.8-1,8.7-1.5c0.5-0.1,1.1-0.3,1.5,0.3c0.3,1.7,0.2,3.4,0.1,5c-0.1,1.8-0.1,3.6-0.2,5.4c-0.2,3-0.3,5.9-0.5,8.9
		c-0.1,1.4-0.1,2.8-0.1,4.2c-0.1,2.3-0.2,4.6-0.2,6.9c-0.1,4.4-0.2,8.9-0.1,13.3c0.1,4.6,0.1,9.2,0.3,13.8c0.1,2.2,0.2,4.4,0.3,6.6
		C421.1,351.3,421.2,351.6,420.9,351.9z"/>
	<path fill="#F6F6F6" d="M420.9,351.9c-0.3-1.5-0.2-3-0.3-4.5c-0.2-4.8-0.3-9.6-0.4-14.4c-0.1-3.9-0.1-7.8-0.1-11.8
		c0-2.2,0-4.4,0.1-6.5c0.2-2.8,0.2-5.6,0.3-8.4c0.1-2.3,0.2-4.5,0.3-6.8c0.1-2.2,0.2-4.4,0.3-6.7c0.1-2,0-4.1,0.1-6.1
		c0.4-0.4,0.9-0.2,1.3-0.1c5,1.1,10,2.1,15,3.2c7.4,1.6,14.8,3.2,22.2,4.9c0.7,0.2,1.2,0,1.7-0.6c0.7-1,1.4-1.9,2.1-2.9
		c0.2-0.3,0.4-0.6,0.7-0.7c0.6-0.4,0.7-1.1,1.3-1.5c0.1,1.5,0.1,3-0.1,4.4c-0.7,1.6-1.7,3-2.7,4.5c-0.6,0.9-0.9,1.8-0.8,2.9
		c0.3,2.3,0.2,4.5,0.3,6.8c0,0.5,0,1.1,0.1,1.6c0.1,0.8,0.2,0.8,1,0.6c0.1,0,0.2-0.1,0.3-0.1c0.5-0.1,1-0.5,1.6-0.1
		c0,0.5,0,1,0.1,1.5c0,0.1,0,0.1,0,0.2c0,0.1,0,0.2-0.1,0.3c-0.4,0.6-1.1,0.9-1.7,1.2c-0.8,0.4-1.1,0.9-1,1.8c0,0.9,0,1.7,0,2.6
		c0.1,2.5-0.6,4.6-2,6.7c-1.6,2.3-3.4,4.6-5.2,6.8c-2.1,2.5-4.4,4.7-6.4,7.2c-1.7,2.1-3.9,3.6-5.9,5.3c-0.2,0.1-0.4,0.2-0.6,0.2
		c-2.4,2.2-5.5,3.4-8.3,5c-1.9,1.1-4.1,1.4-6.1,2c-2.2,0.7-4.4,1.2-6.8,1.4C421.5,351.9,421.2,351.9,420.9,351.9z"/>
	<path fill="#CED7D2" d="M403,348.8c-0.2,0-0.3,0.1-0.3,0.4c0.2,1.6,0.3,3.2,0.6,4.8c0.5,3.1,1,6.1,1.9,9.1c0.7,2.4,1.5,4.8,2.2,7.2
		c0.9,3.2,2.3,6.2,3.7,9.2c1.4,3.1,3.6,5.7,6.1,8c0.4,0.3,0.8,0.6,1.4,0.7c0.7,0.2,1.4,0.6,1.5,1.4c-2.6,0-5.2-0.3-7.8-0.4
		c-1.9-0.1-3.8-0.3-5.7-0.6c-2.9-0.4-5.8-0.6-8.7-1c-2.4-0.4-4.8-0.4-7.1-1.1c-4.2-1.2-8.6-2.4-12.1-5.2c-1.6-1.3-2.6-3.1-2.9-5.1
		c-0.6-3.7-0.3-7.4-0.3-11.1c0-1.7-0.1-3.5-0.1-5.2c0-0.5-0.2-0.6-0.6-0.6c-0.2,0-0.5,0.1-0.7-0.1c1.2-0.1,1.2-0.1,1.2-1.3
		c0-2.3-0.1-4.7-0.2-7c-0.8-12.3-0.3-24.6-0.4-36.9c0-0.4-0.3-0.8,0-1.2c0.2-0.1,0.3-0.1,0.4,0c0.5,0.6,1.1,1,1.4,1.8
		c0.3,3.6,0.2,7.2,0.2,10.9c0,3,0,6,0,9.1c0,1.1,0.2,2,1.5,2.4c0.5,0.1,0.8,0.5,1.2,0.8c3.3,2.1,6.9,3.5,10.8,4.3
		c1.5,0.3,2.9,0.6,4.4,1c0.9,0.1,1.5,0.7,2,1.3c1.8,1.7,3.9,2.8,5.9,4.1C402.6,348.3,402.9,348.4,403,348.8z"/>
	<path fill="#CED7D2" d="M375.8,288.2c-0.6-0.4-0.8-1.1-1.5-1.5c-0.2-0.2-0.1-0.5-0.1-0.8c0-3.6-0.1-7.3,0-10.9
		c0.1-4.2,0.5-8.4,1.5-12.5c0.6-2.9,2.2-5.3,4-7.6c1.5-1.9,3.4-3.2,5.3-4.7c2.7-2,4.9-4.4,6.9-7.1c1.8-2.4,2.9-5.1,3.4-8
		c0.1-0.8,0.3-1.5,0.3-2.3c-0.1-2.6,0.1-5.2,0.3-7.8c0.2-0.3,0.6-0.2,0.9-0.2c4.3,0.5,8.6,0.8,12.9,0.9c1,0,2.1,0.1,3.1,0.2
		c0.9,0.1,1.9,0.1,2.8,0.1c0.3,0,0.7,0,1,0.3c0.1,2.2-0.5,4.4-0.9,6.6c-0.5,3.1-1,6.2-2.1,9.1c-1.2,3.2-2.6,6.2-4.3,9.2
		c-2.7,4.8-5.5,9.6-7.2,14.9c-1.2,3.6-1.9,7.2-2.4,10.9c-0.1,1-0.3,2-0.3,3c-0.3,0.2-0.6,0.2-0.8,0.1c-4.9-1.1-9.8-2-14.6-3.4
		c-1.2-0.4-2.4-0.8-3.5-1.3c-0.9-0.4-1.8-0.7-2.8-0.9c-0.9-0.2-1.2,0-1.4,0.9c-0.2,1.2-0.2,2.5-0.1,3.7c0.2,2.7,0.3,5.5,0.3,8.2
		C376.2,287.7,376.3,288.2,375.8,288.2z"/>
	<path fill="#AFBAB4" d="M416.4,226.4c-1.3-0.1-2.5,0.1-3.8-0.2c-0.1-0.1-0.1-0.2-0.1-0.3c0.8-1.4,0.4-3,0.6-4.6
		c0.5-3.9,0.9-7.7,2.1-11.4c0.5-1.6,1.1-3.2,2.5-4.3c0.4-0.2,0.9-0.1,1.3-0.1c3.5,0,7.1,0,10.6,0c4.3,0,8.6-0.3,12.9-0.4
		c3.1-0.1,6.2-0.5,9.3-0.9c2.2-0.3,4.3-1.1,6.5-1.6c0.4-0.1,0.7-0.3,1.1-0.1c0,2.6,0.1,5.1,0,7.7c-0.1,3.3,0.3,6.6,0.4,9.9
		c0,0.9-0.4,1.5-1.2,1.9c-2.8,1.4-5.8,2-8.8,2.5c-1.8,0.3-3.6,0.5-5.4,0.8c-3.6,0.2-7.2,0.3-10.8,0.7c-5.5,0.6-11,0.5-16.5,0.5
		C416.8,226.4,416.6,226.4,416.4,226.4z"/>
	<path fill="#A4AEA9" d="M417.7,205.8c-0.1,0.5-0.6,0.8-0.8,1.2c-1,1.6-1.4,3.4-1.9,5.2c-0.8,2.9-1,5.9-1.5,8.8
		c-0.1,0.7-0.2,1.3-0.2,2c0,1.2,0,2.3-0.7,3.3c-3.8-0.2-7.6-0.2-11.4-0.6c-1.8-0.2-3.7-0.4-5.5-0.5c-3.5-0.3-7-0.9-10.4-1.7
		c-1.4-0.3-2.8-1-4.1-1.6c-0.5-0.3-0.7-0.7-0.7-1.2c-0.2-2,0.2-3.9,0.3-5.9c0.1-3.3,0.2-6.6,0-10c-0.1-0.8,0-1.6,0.3-2.4
		c0.3-0.1,0.5,0,0.7,0.1c3.4,1.5,7,1.9,10.7,2.2c4,0.4,8,0.5,12.1,0.7c1.6,0.1,3.1,0.1,4.6,0.1c2.6-0.1,5.2,0,7.7,0
		C417.1,205.5,417.5,205.5,417.7,205.8z"/>
	<path fill="#CED7D2" d="M417.7,205.8c-2.9,0-5.8,0-8.7,0c-0.6-0.4-1.3-0.7-1.9-1c-1.4-0.7-2.5-1.7-3.4-2.8c-1.3-1.6-1.1-4.2,0.5-6
		c1.4-1.6,3.1-2.6,5.2-3.1c0.2-0.1,0.4,0,0.6-0.2c0.4-0.2,0.8-0.3,1.2-0.3c4.4-0.1,8.9-0.3,13.3-0.1c3.8,0.1,7.6,0.4,11.4,0.9
		c3.7,0.5,7.4,1.1,11,2.1c3.4,0.9,6.8,2,9.7,4.2c1,0.7,2.1,1.3,2.7,2.5c0.1,0.2,0.2,0.5,0.2,0.8c-2,0.6-4,1.2-5.9,1.7
		c-1.7,0.4-3.5,0.5-5.3,0.8c-3.2,0.4-6.5,0.4-9.7,0.6c-1.9,0.2-3.9,0.2-5.9,0.2C427.6,205.8,422.6,205.8,417.7,205.8z"/>
	<path fill="#BECAC4" d="M409.8,192.5c-0.3,0.6-1,0.6-1.5,0.8c-2,0.6-3.5,1.8-4.6,3.5c-1.2,1.7-1,4.1,0.5,5.6c1.2,1.2,2.5,2.1,4,2.8
		c0.3,0.1,0.7,0.2,0.7,0.7c-3.5,0.1-6.9-0.3-10.4-0.3c-2.2,0-4.4-0.2-6.6-0.5c-3.4-0.4-6.9-0.7-10.1-2.1c-0.3-0.1-0.6-0.3-0.9-0.5
		c0.4-1.3,1.3-2.2,2.3-3c1.6-1.3,3.5-2.1,5.4-2.9c4.1-1.6,8.4-2.4,12.7-3.2c0.1,0,0.3,0,0.4,0c0.1,0,0.2,0,0.3-0.1
		c0.3,0,0.5,0,0.8,0c0.1,0,0.2,0,0.3-0.1c0.4,0,0.8,0,1.1-0.1c0.1,0,0.2,0,0.3-0.1C406.4,192.8,408.1,192.5,409.8,192.5z"/>
	<path fill="#A4AEA9" d="M376.1,314.2c-0.6-0.5-0.9-1.2-1.6-1.6c-0.1-0.5-0.1-0.9,0-1.4c0.9,0.8,1.7,1.6,2.7,2.2
		c1.2,0.7,1.4,1.7,1.5,2.9c0,1,0.1,2.1,0.2,3.1c0.1,1.5,1.1,2.7,1.8,4c2.3,4.1,5.5,7.5,8.2,11.2c2.5,3.4,5.9,5.6,9.2,8
		c2.8,2.1,5.6,4,8.6,5.8c2.6,1.6,5.2,3,8.4,3.3c0.8,0.1,1.6,0.2,2.4,0.4c-1.6,0.4-3.3,0.4-4.9,0.1c-2.9-0.6-5.6-1.5-8.2-2.9
		c-0.4-0.2-0.9-0.4-1.3-0.6c-2.6-1.6-5.3-3.1-7.5-5.3c-0.2-0.2-0.4-0.4-0.7-0.5c-0.1,0-0.1,0-0.2-0.1c-0.1-0.1-0.2-0.1-0.3-0.2
		c-2.4-1.8-4.3-4-6.1-6.4c-2.2-3-4.6-5.9-6.9-8.9c-1.2-1.6-2.6-3.2-3.4-5.1c-0.7-1.8-0.8-3.7-1.1-5.5
		C376.5,315.9,376.6,315,376.1,314.2z"/>
	<path fill="#A4AEA9" d="M374.3,292.3c1.3,1.6,2.3,3.3,3.4,4.9c0.2,0.3,0.2,0.6,0.1,1c-0.3,3-0.2,6.1,0.1,9.1c0.1,1.1,0,2.2,0.2,3.3
		c0.1,0.4-0.1,0.6-0.5,0.3c-0.4-0.3-0.9-0.6-1.3-0.8c-0.4-0.7-0.4-1.5-0.4-2.2c-0.1-2.1-0.2-4.2-0.3-6.3c-0.1-1.3,0.1-2.6,0.2-3.9
		c0-0.9-0.1-1.6-0.7-2.3c-0.4-0.4-0.8-0.9-0.8-1.5C374.2,293.4,374.2,292.9,374.3,292.3z"/>
	<path fill="#CED7D2" d="M374.3,294c0.7,0.6,0.9,1.6,1.7,2.2c0.2,0.1,0.1,0.5,0.1,0.7c-0.1,2.5-0.2,5.1,0,7.6
		c0.1,1.9,0.2,3.8,0.3,5.7c-0.7-0.2-1.1-0.9-1.9-0.9c-0.2-0.2-0.1-0.4-0.1-0.6c0-4.6-0.3-9.2-0.2-13.8
		C374.2,294.5,374.1,294.2,374.3,294z"/>
	<path fill="#D8E2DC" d="M465.6,309.7c-0.5-0.1-1,0.3-1.5,0.3c-0.3-0.3-0.3-0.7-0.3-1.1c0-2.9,0-5.8,0-8.8c0-0.6,0.1-1.2,0.2-1.8
		c0.2-1.1,0.8-2.1,1.7-2.7c0.3,0.2,0.2,0.6,0.2,0.8c0,2.5,0.1,5.1,0,7.6c-0.1,1.7-0.1,3.5-0.1,5.2
		C465.8,309.4,465.8,309.5,465.6,309.7z"/>
	<path fill="#A4AEA9" d="M465.8,295.6c-0.5,0.8-1.1,1.5-1.5,2.3c0,0.1,0,0.1-0.1,0.2c-0.1,0.1-0.1,0.2-0.1,0.3
		c-0.4,0.7-0.8,1.4-1.3,1.9c-0.2,0.2-0.3,0.5-0.7,0.4c-0.2-0.9,0-1.7,0.5-2.5c0.9-1.3,1.8-2.7,2.6-4.1c0.1-0.2,0.3-0.4,0.5-0.6
		C465.8,294.2,465.8,294.9,465.8,295.6z"/>
	<path fill="#A4AEA9" d="M462.7,314.6c-0.2-0.9,0-1.5,1-1.9c0.7-0.2,1.3-0.7,1.9-1c0,0.4,0.1,0.9,0.1,1.3c-0.6,0.4-1.2,0.8-1.8,1.1
		C463.7,314.5,463.3,314.7,462.7,314.6z"/>
	<path fill="#CED7D2" d="M402.1,193.2c-0.1,0.2-0.1,0.4-0.3,0.1C401.9,193.2,402,193.2,402.1,193.2z"/>
	<path fill="#CED7D2" d="M403.3,193.1c-0.1,0.2-0.1,0.3-0.3,0.1C403,193.1,403.1,193,403.3,193.1z"/>
	<path fill="#CED7D2" d="M404.8,192.9c-0.1,0.2-0.1,0.3-0.3,0.1C404.5,192.9,404.6,192.9,404.8,192.9z"/>
	<path fill="#D8E2DC" d="M465.7,311.3c0-0.1,0-0.1,0-0.2C465.7,311.2,465.7,311.2,465.7,311.3C465.7,311.3,465.7,311.3,465.7,311.3z
		"/>
	<path fill="#A4AEA9" d="M461,381.7c0-0.1,0.1-0.1,0.2,0C461.1,381.7,461.1,381.7,461,381.7z"/>
	<path fill="#CED7D2" d="M420.6,389.5c0.1-0.2,0.2-0.2,0.3,0C420.8,389.7,420.7,389.7,420.6,389.5z"/>
	<path fill="#BECAC4" d="M375.8,288.2c0.2-0.1,0.2-0.3,0.2-0.5c0-2.9-0.1-5.8-0.3-8.6c-0.1-1.3-0.1-2.7,0.1-4
		c0.2-0.8,0.9-1.1,1.8-0.8c2.9,0.8,5.6,2.2,8.5,2.9c4.3,1,8.7,1.9,13,2.9c3,0.7,6.1,1.1,9.1,1.7c5.6,1.1,11.3,0.9,16.9,1
		c2.1,0,4.2-0.5,6.3-0.9c3.3-0.5,6.5-1.1,9.7-1.8c4-0.9,8-1.7,12-2.7c2.7-0.7,5.3-1.4,7.9-2.6c0.7-0.3,1.4-0.3,2.1-0.5
		c0.7-0.2,1.4,0.4,1.4,1.2c0,2.1,0.2,4.2-0.1,6.3c0,0.3,0,0.5,0,0.8c0.1,2.4-0.2,4.8-0.2,7.2c0,0.3-0.1,0.7,0.2,0.9
		c-1,1.6-2.1,3-3.2,4.5c-0.2,0.3-0.6,0.2-0.9,0.2c-5.4-1.2-10.8-2.4-16.2-3.6c-7.3-1.6-14.6-3.2-22-4.8c-0.3-0.1-0.6-0.1-0.9-0.1
		c-1.7,0-3.4,0.4-5.1,0.7c-11.2,1.9-22.3,3.8-33.5,5.7c-0.3,0.1-0.7,0.1-1,0.2c-1.4,0.5-2.2-0.1-2.9-1.2
		C377.9,290.8,376.7,289.6,375.8,288.2z"/>
	<path fill="#FFFFFF" d="M461,264.9c-0.1,2.4-0.4,4.8-1,7.2c-0.2,0.7-0.7,0.9-1.2,0.3c-0.5-0.5-0.5-1.2-0.6-1.9
		c-0.3-2.7-1.4-5-3.8-6.5c-0.8-0.5-1.8-0.7-2.7-1.2c-3.2-1.5-2.6-4.4-0.7-6.2c1.3-1.2,2.8-1.5,4.5-1.3c0.6,0.1,1.2,0.3,1.6,0.7
		c1.6,1.7,3.1,3.4,3.6,5.8C461,262.9,461.1,263.9,461,264.9z"/>
	<path fill="#FFFFFF" d="M441.2,242.1c-0.6-1.4-0.8-2.8-0.9-4.3c-0.2-2.6-0.4-5.3-0.4-8c0-0.2,0-0.4,0-0.6c0.1-0.3,0.2-0.5,0.5-0.5
		c0.3,0,0.5,0.2,0.6,0.5c0.1,0.3,0.2,0.7,0.2,1C441.2,234.2,441.2,238.1,441.2,242.1z"/>
	<path fill="#FFFFFF" d="M438.4,233c0.1,1.3,0,2.3-0.3,3.4c-0.1,0.2-0.1,0.5-0.3,0.5c-0.3,0.1-0.4-0.3-0.5-0.5
		c-0.6-1.2-0.8-2.5-0.6-3.8c0.1-0.5,0.1-0.9,0.1-1.4c0.1-0.4,0.2-0.8,0.8-0.8c0.5,0,0.7,0.5,0.7,0.9
		C438.5,232,438.4,232.6,438.4,233z"/>
	<path fill="#BECAC4" d="M462.7,314.6c0.4-0.2,0.8-0.3,1.3-0.5c0,6.8,0,13.6,0,20.4c0,1.2-0.4,2-1.7,2.5c-1.3,0.5-2.4,1.5-3.7,2.2
		c-3.4,1.8-7,2.7-10.7,3.4c-1.5,0.3-3,0.6-4.5,0.9c-0.2,0-0.4,0.2-0.6-0.1c3.2-2.4,6-5.3,8.7-8.3c2-2.3,4-4.6,6-6.9
		c1.7-2,3.1-4.2,4.4-6.4c0.6-1,0.7-2.2,0.7-3.4C462.7,317.1,462.7,315.8,462.7,314.6z"/>
	<path fill="#FFFFFF" d="M461.2,364.8c-0.1,2.6-0.2,5.2-0.2,7.8c0,1.7-0.6,3.3-1.1,4.9c-0.5,1.5-1.8,1.8-3.2,2.1
		c-2.4,0.4-2.8-1.3-2.6-3.5c0.1-1.6,1.2-2.8,2.1-4c1.3-1.8,2.5-3.7,2.9-5.9c0.4-2.3,1.2-4.5,0.9-6.8c0-0.3,0.1-0.5,0.2-0.8
		c0.1-0.2,0.3-0.3,0.5-0.2c0.3,0,0.3,0.2,0.3,0.4c0,0.1,0,0.1,0,0.2C460.9,360.9,461.2,362.8,461.2,364.8z"/>
	<path fill="#DDDDDD" d="M401.2,299.2c0.2-0.4,0.5-0.4,0.8-0.5c3.2-1.2,6.5-2,9.8-2.8c2.2-0.5,4.3-1,6.5-1.5
		c0.5-0.1,0.9-0.1,1.4-0.1c0.3,0,0.8-0.1,0.8,0.5c0,0.5-0.4,0.6-0.7,0.6c-1.4,0.3-2.9,0.6-4.4,1c-2.4,0.6-4.8,1.3-7.3,1.7
		c-2.1,0.4-4.1,1.3-6.3,1.1C401.6,299.2,401.5,299.2,401.2,299.2z"/>
	<path fill="#DDDDDD" d="M405.6,303.1c-0.2,0-0.6,0.1-0.6-0.3c0-0.3,0.2-0.4,0.5-0.5c3.2-0.9,6.4-2,9.8-2.5c1.3-0.2,2.6-0.5,3.9-0.5
		c0.3,0,0.7-0.1,0.7,0.3c0,0.4-0.4,0.3-0.7,0.4c-4,1-8,1.9-11.9,2.8C406.7,303,406.1,303.1,405.6,303.1z"/>
	<path fill="#DDDDDD" d="M412.3,304.9c0.5-0.7,1.2-0.8,1.7-0.9c1.3-0.4,2.7-0.7,4-1c0.5-0.1,1.2-0.4,1.3,0.3c0.2,0.6-0.6,0.5-1,0.7
		C416.5,304.6,414.5,304.9,412.3,304.9z"/>
	<path fill="#EDEDED" d="M441.6,299.3c-1,0.1-1.9,0.1-2.9-0.1c-4.5-0.9-8.9-2.3-13.4-3.1c-0.8-0.1-1.6-0.4-2.4-0.6
		c-0.3-0.1-0.6-0.3-0.5-0.6c0.1-0.3,0.3-0.4,0.6-0.4c1.2-0.1,2.4,0.3,3.6,0.6c2.4,0.6,4.9,1.1,7.3,1.7c1.7,0.4,3.5,0.7,5.1,1.5
		C439.9,298.7,440.8,298.7,441.6,299.3z"/>
	<path fill="#BECAC4" d="M464.1,298.1c0,0,0.1-0.1,0.1-0.1c-0.3,4-0.1,8-0.1,12c-1.6,0.7-1.6,0.7-1.7-0.9c-0.1-2.8-0.2-5.5-0.4-8.3
		c0.8-0.7,1.3-1.7,1.9-2.5C464,298.2,464.1,298.1,464.1,298.1z"/>
	<path fill="#EDEDED" d="M424.2,299.5c2.4,0.3,5,0.7,7.4,1.4c1.9,0.5,3.8,1.1,5.7,1.7c0.3,0.1,0.7,0.1,0.6,0.5
		c-0.1,0.3-0.5,0.2-0.7,0.2c-1.9-0.2-3.7-0.7-5.5-1.1c-2.7-0.6-5.3-1.2-8-1.9c-0.3-0.1-0.7,0-0.7-0.4c0-0.5,0.5-0.3,0.8-0.3
		C423.9,299.5,423.9,299.5,424.2,299.5z"/>
	<path fill="#EDEDED" d="M429.5,305.1c-1.9-0.2-3.8-0.4-5.5-1.1c-0.3-0.1-0.5-0.2-0.5-0.5c0-0.4,0.4-0.3,0.6-0.3c1,0,2,0.4,2.9,0.6
		c0.9,0.2,1.7,0.4,2.6,0.7c0.3,0.1,0.8,0.1,0.7,0.5C430.3,305.3,429.8,305,429.5,305.1z"/>
	<path fill="#BECAC4" d="M376.1,314.2c0.5,0.1,0.5,0.5,0.6,0.8c0.2,1.6,0.4,3.3,0.7,4.9c0.3,1.8,1,3.4,2.1,4.8
		c3.6,4.6,7.2,9.3,10.7,14c0.6,0.8,1.3,1.5,2,2.1c0.7,0.6,1.5,1.2,2.1,1.9c0.1,0,0.1,0.1,0.2,0.1c0,0,0.1,0.1,0.1,0.1
		c-1.9-0.4-3.7-0.8-5.6-1.2c-3.7-0.8-7.2-2.3-10.4-4.4c-0.5-0.3-0.9-0.6-1.5-0.8c-0.9-0.3-1-1-1-1.9c0-5.4,0-10.9,0-16.3
		C376.3,317.1,376,315.7,376.1,314.2z"/>
	<path fill="#FFFFFF" d="M455.5,220.4c-0.7-1-0.8-2.2-1-3.3c-0.3-2.9-0.4-5.9-0.3-8.8c0-0.5,0.1-1,0.2-1.5c0.1-0.4,0.3-0.9,0.8-0.9
		c0.5,0,0.7,0.5,0.8,0.9c0.1,1.1,0.3,2.2,0.1,3.3c-0.2,1.6-0.1,3.2-0.1,4.7c0,1.7-0.1,3.3-0.3,5
		C455.6,220.1,455.5,220.3,455.5,220.4z"/>
	<path fill="#BECAC4" d="M435.3,200.2c-0.6,1.5-1.8,2.1-3.3,2.3c-2.3,0.3-4.7,0.2-7,0c-1.1-0.1-2.3,0-3.4,0
		c-3.9-0.1-7.7,0.3-11.6,0.1c-1.2,0-2.5,0-3.6-0.7c-0.7-0.4-1.3-1-1.7-1.7c-0.2-1.7,0.2-2.4,1.9-2.9c2.7-0.8,5.5-1.5,8.4-1.5
		c1.2,0,2.4-0.1,3.6-0.1c3.5,0,7.1-0.1,10.6,0.5c1.4,0.2,2.9,0.7,4.3,1.1c0.5,0.1,1,0.4,1.4,0.7
		C435.6,198.6,435.7,199.2,435.3,200.2z"/>
	<path fill="#B2BCB6" d="M435.3,200.2c0.2-1.9-0.8-2.5-2.7-2.9c-1.8-0.4-3.5-1-5.4-1.1c-0.2,0-0.3-0.1-0.5-0.1c-1.9,0-3.7,0-5.6-0.1
		c-2.6-0.2-5.2,0.1-7.7,0.2c-2.4,0-4.7,0.8-7,1.5c-1,0.3-1.7,0.9-1.6,2.1c0,0.2,0,0.3-0.2,0.4c-0.6-1-0.4-1.9,0.5-2.6
		c1.1-0.8,2.4-0.9,3.6-1.3c1.9-0.6,3.9-0.7,5.8-0.9c2.9-0.2,5.9-0.1,8.8-0.1c3.1,0,6.2,0.4,9.2,1.3c0.9,0.3,1.8,0.5,2.6,1.1
		C436,198.4,436.1,199.6,435.3,200.2z"/>
	<path fill="#CED7D2" d="M394.6,342.9c-0.1,0-0.1-0.1-0.2-0.1C394.5,342.7,394.6,342.8,394.6,342.9z"/>
	<path fill="#D8E2DC" d="M464.1,298.1c0,0.1-0.1,0.1-0.1,0.2C464.1,298.2,464.1,298.1,464.1,298.1z"/>
</g>
</svg>
